<mxfile host="app.diagrams.net" agent="Mozilla/5.0 (X11; Linux x86_64; rv:143.0) Gecko/20100101 Firefox/143.0" version="28.2.4">
  <diagram name="Page-1" id="qsZ_LnOIo3cA4xp2xMpQ">
    <mxGraphModel dx="1365" dy="1520" grid="1" gridSize="10" guides="1" tooltips="1" connect="1" arrows="1" fold="1" page="0" pageScale="1" pageWidth="827" pageHeight="1169" background="#ffffff" math="0" shadow="0" adaptiveColors="simple">
      <root>
        <mxCell id="0" />
        <mxCell id="1" parent="0" />
        <mxCell id="aVbF9OA-xLC0kDLgi7-l-8" value="" style="rounded=0;whiteSpace=wrap;html=1;fillColor=#E2CFEA;glass=0;fontFamily=Garamond;" parent="1" vertex="1">
          <mxGeometry x="1320" y="360" width="750" height="280" as="geometry" />
        </mxCell>
        <mxCell id="aVbF9OA-xLC0kDLgi7-l-6" value="" style="rounded=0;whiteSpace=wrap;html=1;fillColor=#E2CFEA;glass=0;fontFamily=Garamond;" parent="1" vertex="1">
          <mxGeometry x="480" y="-40" width="1130" height="280" as="geometry" />
        </mxCell>
        <mxCell id="d8LdDF7MB_FyyKOB4kCU-10" value="" style="rounded=0;whiteSpace=wrap;html=1;fillColor=#E2CFEA;glass=0;fontFamily=Garamond;" parent="1" vertex="1">
          <mxGeometry x="560" y="360" width="520" height="280" as="geometry" />
        </mxCell>
        <mxCell id="5T-_rsz50Jgn7uRpXRnm-3" value="WEB SERVER REQUEST HANDELER" style="rounded=0;whiteSpace=wrap;html=1;fontFamily=Garamond;labelBackgroundColor=none;fillColor=#6CD4FF;strokeColor=#788AA3;fontColor=#000000;" parent="1" vertex="1">
          <mxGeometry x="840" y="428.5" width="160" height="51.5" as="geometry" />
        </mxCell>
        <mxCell id="5T-_rsz50Jgn7uRpXRnm-7" value="" style="endArrow=classic;startArrow=classic;html=1;rounded=0;entryX=0;entryY=0;entryDx=0;entryDy=30;fontFamily=Garamond;labelBackgroundColor=none;fontColor=default;strokeColor=#000000;exitX=1;exitY=0.5;exitDx=0;exitDy=0;exitPerimeter=0;entryPerimeter=0;" parent="1" source="ultQ3xpkIr3NzCKVsSpb-7" target="ultQ3xpkIr3NzCKVsSpb-15" edge="1">
          <mxGeometry width="50" height="50" relative="1" as="geometry">
            <mxPoint x="70" y="438" as="sourcePoint" />
            <mxPoint x="849" y="555" as="targetPoint" />
            <Array as="points" />
          </mxGeometry>
        </mxCell>
        <mxCell id="5T-_rsz50Jgn7uRpXRnm-8" value="" style="endArrow=classic;startArrow=classic;html=1;rounded=0;exitX=0;exitY=0;exitDx=79.75;exitDy=0;entryX=0.5;entryY=1;entryDx=0;entryDy=0;fontFamily=Garamond;labelBackgroundColor=none;fontColor=default;strokeColor=#000000;exitPerimeter=0;" parent="1" source="ultQ3xpkIr3NzCKVsSpb-15" target="5T-_rsz50Jgn7uRpXRnm-3" edge="1">
          <mxGeometry width="50" height="50" relative="1" as="geometry">
            <mxPoint x="928" y="529" as="sourcePoint" />
            <mxPoint x="220" y="348" as="targetPoint" />
          </mxGeometry>
        </mxCell>
        <mxCell id="5T-_rsz50Jgn7uRpXRnm-9" value="ADMIN CONTROL PANEL MANAGER INTERFACE" style="rounded=0;whiteSpace=wrap;html=1;fontFamily=Garamond;labelBackgroundColor=none;fillColor=#345995;strokeColor=#788AA3;fontColor=#FFFFFF;" parent="1" vertex="1">
          <mxGeometry x="530" y="100" width="170" height="60" as="geometry" />
        </mxCell>
        <mxCell id="5T-_rsz50Jgn7uRpXRnm-10" value="SERVICE PROVIDER DASHBOARD STAFF INTERFACE" style="rounded=0;whiteSpace=wrap;html=1;fontFamily=Garamond;labelBackgroundColor=none;fillColor=#345995;strokeColor=#788AA3;fontColor=#FFFFFF;" parent="1" vertex="1">
          <mxGeometry x="740" y="100" width="160" height="60" as="geometry" />
        </mxCell>
        <mxCell id="5T-_rsz50Jgn7uRpXRnm-11" value="CUSTOMER WEB PORTAL MOBILE &amp;amp; DESKTOP" style="rounded=0;whiteSpace=wrap;html=1;fontFamily=Garamond;labelBackgroundColor=none;fillColor=#345995;strokeColor=#788AA3;fontColor=#FFFFFF;" parent="1" vertex="1">
          <mxGeometry x="940" y="100" width="170" height="60" as="geometry" />
        </mxCell>
        <mxCell id="5T-_rsz50Jgn7uRpXRnm-13" value="" style="endArrow=classic;html=1;rounded=0;exitX=0.5;exitY=1;exitDx=0;exitDy=0;fontFamily=Garamond;labelBackgroundColor=none;fontColor=default;strokeColor=#000000;entryX=0.4;entryY=-0.001;entryDx=0;entryDy=0;entryPerimeter=0;" parent="1" source="5T-_rsz50Jgn7uRpXRnm-10" target="5T-_rsz50Jgn7uRpXRnm-3" edge="1">
          <mxGeometry width="50" height="50" relative="1" as="geometry">
            <mxPoint x="590" y="342" as="sourcePoint" />
            <mxPoint x="400" y="281" as="targetPoint" />
            <Array as="points">
              <mxPoint x="820" y="280" />
              <mxPoint x="904" y="280" />
            </Array>
          </mxGeometry>
        </mxCell>
        <mxCell id="5T-_rsz50Jgn7uRpXRnm-14" value="" style="endArrow=classic;html=1;rounded=0;entryX=0.593;entryY=-0.002;entryDx=0;entryDy=0;exitX=0.5;exitY=1;exitDx=0;exitDy=0;fontFamily=Garamond;labelBackgroundColor=none;fontColor=default;strokeColor=#000000;entryPerimeter=0;" parent="1" source="5T-_rsz50Jgn7uRpXRnm-11" target="5T-_rsz50Jgn7uRpXRnm-3" edge="1">
          <mxGeometry width="50" height="50" relative="1" as="geometry">
            <mxPoint x="890" y="302" as="sourcePoint" />
            <mxPoint x="500" y="312" as="targetPoint" />
            <Array as="points">
              <mxPoint x="1025" y="280" />
              <mxPoint x="935" y="280" />
            </Array>
          </mxGeometry>
        </mxCell>
        <mxCell id="5T-_rsz50Jgn7uRpXRnm-15" value="ON-SITE KISOK WALK-IN &amp;amp; CHECK-INS" style="rounded=0;whiteSpace=wrap;html=1;fontFamily=Garamond;labelBackgroundColor=none;fillColor=#345995;strokeColor=#788AA3;fontColor=#FFFFFF;" parent="1" vertex="1">
          <mxGeometry x="1164" y="102" width="173" height="58" as="geometry" />
        </mxCell>
        <mxCell id="5T-_rsz50Jgn7uRpXRnm-16" value="" style="endArrow=classic;html=1;rounded=0;fontFamily=Garamond;labelBackgroundColor=none;fontColor=default;strokeColor=#000000;entryX=0.799;entryY=0.004;entryDx=0;entryDy=0;entryPerimeter=0;exitX=0.5;exitY=1;exitDx=0;exitDy=0;" parent="1" source="5T-_rsz50Jgn7uRpXRnm-15" target="5T-_rsz50Jgn7uRpXRnm-3" edge="1">
          <mxGeometry width="50" height="50" relative="1" as="geometry">
            <mxPoint x="1304" y="238" as="sourcePoint" />
            <mxPoint x="980" y="420" as="targetPoint" />
            <Array as="points">
              <mxPoint x="1250" y="320" />
              <mxPoint x="968" y="320" />
            </Array>
          </mxGeometry>
        </mxCell>
        <mxCell id="5T-_rsz50Jgn7uRpXRnm-17" value="" style="endArrow=classic;html=1;rounded=0;exitX=0.5;exitY=1;exitDx=0;exitDy=0;fontFamily=Garamond;labelBackgroundColor=none;fontColor=default;strokeColor=#000000;entryX=0.198;entryY=-0.002;entryDx=0;entryDy=0;entryPerimeter=0;" parent="1" source="5T-_rsz50Jgn7uRpXRnm-9" target="5T-_rsz50Jgn7uRpXRnm-3" edge="1">
          <mxGeometry width="50" height="50" relative="1" as="geometry">
            <mxPoint x="560" y="272" as="sourcePoint" />
            <mxPoint x="400" y="271" as="targetPoint" />
            <Array as="points">
              <mxPoint x="614" y="320" />
              <mxPoint x="872" y="320" />
            </Array>
          </mxGeometry>
        </mxCell>
        <mxCell id="5T-_rsz50Jgn7uRpXRnm-20" value="" style="endArrow=classic;html=1;rounded=0;fontFamily=Garamond;labelBackgroundColor=none;fontColor=default;strokeColor=#000000;entryX=0;entryY=0;entryDx=20.8;entryDy=80;entryPerimeter=0;exitX=0;exitY=0;exitDx=179.5;exitDy=20;exitPerimeter=0;" parent="1" source="ultQ3xpkIr3NzCKVsSpb-15" target="ultQ3xpkIr3NzCKVsSpb-9" edge="1">
          <mxGeometry width="50" height="50" relative="1" as="geometry">
            <mxPoint x="1017.0000000000002" y="536.6901960784313" as="sourcePoint" />
            <mxPoint x="1360" y="500" as="targetPoint" />
            <Array as="points">
              <mxPoint x="1361" y="540" />
            </Array>
          </mxGeometry>
        </mxCell>
        <mxCell id="5T-_rsz50Jgn7uRpXRnm-22" value="PUBLIC DISPLAY SCREEN CONTROLLER" style="rounded=0;whiteSpace=wrap;html=1;fontFamily=Garamond;labelBackgroundColor=none;fillColor=#ACF39D;strokeColor=#788AA3;fontColor=#000099;" parent="1" vertex="1">
          <mxGeometry x="1860" y="400" width="160" height="60" as="geometry" />
        </mxCell>
        <mxCell id="5T-_rsz50Jgn7uRpXRnm-23" value="" style="endArrow=classic;html=1;rounded=0;exitX=0;exitY=0;exitDx=179.5;exitDy=50;fontFamily=Garamond;labelBackgroundColor=none;fontColor=default;strokeColor=#000000;exitPerimeter=0;entryX=0;entryY=0;entryDx=15.079999999999998;entryDy=80;entryPerimeter=0;" parent="1" source="ultQ3xpkIr3NzCKVsSpb-15" target="ultQ3xpkIr3NzCKVsSpb-11" edge="1">
          <mxGeometry width="50" height="50" relative="1" as="geometry">
            <mxPoint x="977.5000000000002" y="563" as="sourcePoint" />
            <mxPoint x="1680" y="490" as="targetPoint" />
            <Array as="points">
              <mxPoint x="1615" y="570" />
            </Array>
          </mxGeometry>
        </mxCell>
        <mxCell id="5T-_rsz50Jgn7uRpXRnm-24" value="" style="endArrow=classic;html=1;rounded=0;entryX=0.5;entryY=1;entryDx=0;entryDy=0;exitX=1;exitY=1;exitDx=0;exitDy=0;fontFamily=Garamond;labelBackgroundColor=none;fontColor=default;strokeColor=#000000;exitPerimeter=0;" parent="1" source="ultQ3xpkIr3NzCKVsSpb-15" target="5T-_rsz50Jgn7uRpXRnm-22" edge="1">
          <mxGeometry width="50" height="50" relative="1" as="geometry">
            <mxPoint x="938" y="563" as="sourcePoint" />
            <mxPoint x="1919.9999999999995" y="522.5" as="targetPoint" />
            <Array as="points">
              <mxPoint x="1940" y="600" />
            </Array>
          </mxGeometry>
        </mxCell>
        <mxCell id="mxy4_Z540qqXYXe5ajLi-5" value="" style="endArrow=classic;endFill=1;html=1;rounded=0;entryX=0.5;entryY=0;entryDx=0;entryDy=0;fontFamily=Garamond;labelBackgroundColor=none;fontColor=default;strokeColor=#000000;exitX=0.25;exitY=0;exitDx=0;exitDy=0;exitPerimeter=0;" parent="1" source="ultQ3xpkIr3NzCKVsSpb-9" target="5T-_rsz50Jgn7uRpXRnm-15" edge="1">
          <mxGeometry width="160" relative="1" as="geometry">
            <mxPoint x="1335" y="441" as="sourcePoint" />
            <mxPoint x="1400" y="320" as="targetPoint" />
            <Array as="points">
              <mxPoint x="1380" y="320" />
              <mxPoint x="1380" y="210" />
              <mxPoint x="1380" y="80" />
              <mxPoint x="1250" y="80" />
            </Array>
          </mxGeometry>
        </mxCell>
        <mxCell id="mxy4_Z540qqXYXe5ajLi-6" value="PUBLIC DISPLAY SCREEN WAITING AREA" style="html=1;whiteSpace=wrap;fontFamily=Garamond;labelBackgroundColor=none;fillColor=light-dark(#241f31, #2ba2b1);strokeColor=#788AA3;fontColor=#33FFFF;rounded=0;" parent="1" vertex="1">
          <mxGeometry x="1850" y="269.5" width="180" height="43" as="geometry" />
        </mxCell>
        <mxCell id="mxy4_Z540qqXYXe5ajLi-7" value="" style="endArrow=classic;html=1;rounded=0;exitX=0.5;exitY=0;exitDx=0;exitDy=0;fontFamily=Garamond;labelBackgroundColor=none;fontColor=default;strokeColor=#000000;entryX=0.5;entryY=1;entryDx=0;entryDy=0;entryPerimeter=0;" parent="1" source="5T-_rsz50Jgn7uRpXRnm-22" target="ultQ3xpkIr3NzCKVsSpb-12" edge="1">
          <mxGeometry width="50" height="50" relative="1" as="geometry">
            <mxPoint x="1800" y="480" as="sourcePoint" />
            <mxPoint x="1920" y="330" as="targetPoint" />
          </mxGeometry>
        </mxCell>
        <mxCell id="d8LdDF7MB_FyyKOB4kCU-14" value="SERVER-SIDE(BACKEND)" style="text;html=1;align=center;verticalAlign=middle;whiteSpace=wrap;rounded=0;fontColor=#000099;fillColor=light-dark(#E6D0DE, #e2cfea);fontFamily=Garamond;" parent="1" vertex="1">
          <mxGeometry x="730" y="650" width="180" height="30" as="geometry" />
        </mxCell>
        <mxCell id="d8LdDF7MB_FyyKOB4kCU-15" value="CLIENT-SIDE(USER INTERFACE)" style="text;html=1;align=center;verticalAlign=middle;whiteSpace=wrap;rounded=0;fontColor=#000099;fillColor=light-dark(#e2cfea, #e2cfea);fontFamily=Garamond;" parent="1" vertex="1">
          <mxGeometry x="920" y="-90" width="210" height="40" as="geometry" />
        </mxCell>
        <mxCell id="d8LdDF7MB_FyyKOB4kCU-16" value="&lt;font face=&quot;Helvetica&quot;&gt;EXTERNAL SERVICES(THIRD-PARTY)&lt;/font&gt;" style="text;html=1;align=center;verticalAlign=middle;whiteSpace=wrap;rounded=0;fontColor=#000099;labelBackgroundColor=none;fillColor=light-dark(#E2CFEA,#E2CFEA);textShadow=0;fontFamily=Garamond;" parent="1" vertex="1">
          <mxGeometry x="1565" y="320" width="230" height="30" as="geometry" />
        </mxCell>
        <mxCell id="ultQ3xpkIr3NzCKVsSpb-7" value="DATABASE CENTRAL REPOSITORY" style="shape=cylinder3;whiteSpace=wrap;html=1;boundedLbl=1;backgroundOutline=1;size=15;fillColor=light-dark(#6cd4ff, #6cd4ff);fontFamily=Garamond;fontColor=#000000;strokeColor=#788AA3;" parent="1" vertex="1">
          <mxGeometry x="614" y="500" width="82" height="100" as="geometry" />
        </mxCell>
        <mxCell id="ultQ3xpkIr3NzCKVsSpb-9" value="AI QUERY SYSTEM CUSTOMER SUPPORT" style="shape=callout;whiteSpace=wrap;html=1;perimeter=calloutPerimeter;fillColor=light-dark(#ACF39D,#ACF39D);fontFamily=Garamond;strokeColor=#788AA3;fontColor=#000099;size=30;position=0.19;position2=0.13;" parent="1" vertex="1">
          <mxGeometry x="1340" y="400" width="160" height="80" as="geometry" />
        </mxCell>
        <mxCell id="ultQ3xpkIr3NzCKVsSpb-11" value="SMS/EMAIL GATEWAY NOTIFICATIONS" style="whiteSpace=wrap;html=1;shape=mxgraph.basic.roundRectCallout;dx=25.83;dy=10;size=5;boundedLbl=1;fillColor=light-dark(#ACF39D,#ACF39D);fontFamily=Garamond;strokeColor=#788AA3;fontColor=#000099;" parent="1" vertex="1">
          <mxGeometry x="1600" y="400" width="160" height="80" as="geometry" />
        </mxCell>
        <mxCell id="ultQ3xpkIr3NzCKVsSpb-12" value="" style="verticalLabelPosition=bottom;verticalAlign=top;html=1;shape=mxgraph.basic.frame;dx=10;whiteSpace=wrap;fillColor=light-dark(#5e5c64, #131313);fontFamily=Garamond;" parent="1" vertex="1">
          <mxGeometry x="1840" y="260" width="200" height="60" as="geometry" />
        </mxCell>
        <mxCell id="ultQ3xpkIr3NzCKVsSpb-15" value="APPLICATION SERVER QUEUE MANAGEMENT LOGIC" style="shape=cube;whiteSpace=wrap;html=1;boundedLbl=1;backgroundOutline=1;darkOpacity=0.05;darkOpacity2=0.1;fillColor=light-dark(#6CD4FF,#6CD4FF);fontFamily=Garamond;strokeColor=#788AA3;fontColor=#000000;" parent="1" vertex="1">
          <mxGeometry x="840.5" y="520" width="179.5" height="80" as="geometry" />
        </mxCell>
        <mxCell id="aVbF9OA-xLC0kDLgi7-l-2" value="" style="endArrow=classic;html=1;rounded=0;strokeColor=#000000;entryX=0.75;entryY=0;entryDx=0;entryDy=0;shadow=1;exitX=0.75;exitY=0;exitDx=0;exitDy=0;exitPerimeter=0;" parent="1" source="ultQ3xpkIr3NzCKVsSpb-9" target="5T-_rsz50Jgn7uRpXRnm-11" edge="1">
          <mxGeometry width="50" height="50" relative="1" as="geometry">
            <mxPoint x="1440" y="80" as="sourcePoint" />
            <mxPoint x="1100" y="30" as="targetPoint" />
            <Array as="points">
              <mxPoint x="1460" y="40" />
              <mxPoint x="1067" y="40" />
            </Array>
          </mxGeometry>
        </mxCell>
        <mxCell id="aVbF9OA-xLC0kDLgi7-l-3" value="" style="endArrow=classic;html=1;rounded=0;labelBackgroundColor=default;fontColor=#000000;strokeColor=#000000;entryX=0.25;entryY=0;entryDx=0;entryDy=0;exitX=0;exitY=0;exitDx=0;exitDy=35;exitPerimeter=0;" parent="1" source="ultQ3xpkIr3NzCKVsSpb-11" target="5T-_rsz50Jgn7uRpXRnm-11" edge="1">
          <mxGeometry width="50" height="50" relative="1" as="geometry">
            <mxPoint x="1520" y="480" as="sourcePoint" />
            <mxPoint x="990" as="targetPoint" />
            <Array as="points">
              <mxPoint x="1550" y="435" />
              <mxPoint x="1550" />
              <mxPoint x="983" />
            </Array>
          </mxGeometry>
        </mxCell>
      </root>
    </mxGraphModel>
  </diagram>
</mxfile>
